<svg xmlns="http://www.w3.org/2000/svg" xmlns:xlink="http://www.w3.org/1999/xlink" viewBox="0 0 659.763 380.561">
  <defs>
    <path d="M180-83H97V0h83" fill-rule="evenodd" transform="scale(.00996)" id="x"/>
    <path d="M377-694h-88L28 0h74l77-204h291L546 0h92M448-260H200l65-181c21-59 52-144 59-181h1c2 14 9 39 32 105" fill-rule="evenodd" transform="scale(.00996)" id="G"/>
    <path d="M97-694V0h264c144 0 249-90 249-188 0-87-87-158-193-175 91-23 166-81 166-157 0-92-107-174-249-174M180-391v-247h126c111 0 199 53 199 119 0 60-71 128-209 128M180-56v-274h145c106 0 204 61 204 141 0 75-88 133-196 133" fill-rule="evenodd" transform="scale(.00996)" id="D"/>
    <path d="M96-694V0h263c170 0 306-152 306-341 0-194-135-353-307-353M182-56v-582h153c140 0 244 121 244 297 0 170-104 285-244 285" fill-rule="evenodd" transform="scale(.00996)" id="i"/>
    <path d="M513-329v-61H183v-237h138c12 0 24 1 36 1h183v-65H94V0h460v-71H428c-12 0-24 1-36 1H183v-259" fill-rule="evenodd" transform="scale(.00996)" id="E"/>
    <path d="M613-694h-89v303H183v-303H94V0h89v-330h341V0h89" fill-rule="evenodd" transform="scale(.00996)" id="y"/>
    <path d="M183-694H94V0h89" fill-rule="evenodd" transform="scale(.00996)" id="h"/>
    <path d="M220-694H96V0h78v-623h1c19 41 61 126 67 137L487 0h124v-694h-78v623h-1c-19-41-61-126-67-137" fill-rule="evenodd" transform="scale(.00996)" id="a"/>
    <path d="M679-345c0-210-145-371-311-371-170 0-312 163-312 371C56-133 204 22 367 22c167 0 312-157 312-367M368-43c-118 0-223-125-223-317 0-183 110-292 222-292 116 0 223 113 223 292 0 195-108 317-222 317" fill-rule="evenodd" transform="scale(.00996)" id="s"/>
    <path d="M352-289c124 0 230-91 230-203 0-107-99-202-237-202H96V0h89v-289m138-349c110 0 178 61 178 146 0 79-63 145-178 145H182v-291" fill-rule="evenodd" transform="scale(.00996)" id="H"/>
    <path d="M419-326c103-30 170-101 170-182 0-99-109-186-252-186H96V0h86v-317h158L528 0h89M182-378v-260h144c116 0 182 59 182 130s-64 130-182 130" fill-rule="evenodd" transform="scale(.00996)" id="u"/>
    <path d="M465-666c-55-33-110-50-183-50-139 0-226 98-226 197 0 43 14 85 54 127 42 45 86 57 145 71 85 21 95 24 123 49 20 17 42 50 42 93 0 66-55 132-146 132-41 0-131-10-215-81L44-47c88 55 168 69 231 69 132 0 224-101 224-211 0-65-31-113-53-137-47-50-80-59-172-82-58-14-74-18-104-44-7-6-35-35-35-79 0-59 54-119 146-119 84 0 132 33 169 64" fill-rule="evenodd" transform="scale(.00996)" id="n"/>
    <path d="M385-624h89c12 0 24 1 36 1h134v-65H36v65h134c12 0 24-1 36-1h90V0h89" fill-rule="evenodd" transform="scale(.00996)" id="F"/>
    <path d="M652-694h-78L441-352c-16 41-91 234-100 280h-1c-8-40-51-150-60-174L107-694H14L287 0h92" fill-rule="evenodd" transform="scale(.00996)" id="t"/>
    <path d="M399-289c0-102-73-172-165-172-65 0-110 16-157 43l6 66c52-37 102-50 151-50 47 0 87 40 87 114v43c-150 2-277 44-277 132C44-70 71 11 158 11c14 0 108-2 166-47V0h75m-78-132c0 19 0 44-34 63-29 18-67 19-78 19-48 0-93-23-93-65 0-70 162-77 205-79" fill-rule="evenodd" transform="scale(.00996)" id="p"/>
    <path d="M157-694H82V0h78v-46c24 22 67 57 134 57 100 0 186-100 186-234 0-124-68-232-162-232-39 0-101 10-161 59m3 61c16-24 52-59 107-59 59 0 135 43 135 171 0 130-84 173-145 173-39 0-72-18-97-64" fill-rule="evenodd" transform="scale(.00996)" id="I"/>
    <path d="M410-418c-59-34-93-43-154-43-139 0-220 121-220 239C36-98 127 11 252 11c54 0 109-14 163-51l-6-67c-51 40-105 54-156 54-83 0-139-72-139-170 0-78 37-174 143-174 52 0 86 8 141 44" fill-rule="evenodd" transform="scale(.00996)" id="o"/>
    <path d="M434-694h-75v294c-53-44-109-55-146-55-99 0-177 104-177 233C36-91 113 11 208 11c33 0 92-9 148-63V0h78m-78-139c0 14-1 32-33 61-23 20-48 28-74 28-62 0-135-47-135-171 0-132 86-173 145-173 45 0 75 23 97 55" fill-rule="evenodd" transform="scale(.00996)" id="z"/>
    <path d="M414-219c0-34-1-109-40-169-41-62-102-73-138-73-111 0-201 106-201 235C35-94 131 11 251 11c63 0 120-24 159-52l-6-65c-63 52-129 56-152 56-80 0-144-71-147-169m5-55c16-76 69-126 126-126 52 0 108 34 121 126" fill-rule="evenodd" transform="scale(.00996)" id="b"/>
    <path d="M352-391c22 0 50-4 74-4 18 0 57 3 59 3l-11-63c-70 0-128 19-158 32-21-17-55-32-95-32-86 0-159 72-159 163 0 37 13 73 33 99-29 41-29 80-29 85 0 26 9 55 26 76C40-1 28 45 28 71c0 75 99 135 221 135 123 0 222-59 222-136C471-69 304-69 265-69h-88c-13 0-58 0-58-53 0-11 4-27 11-36 21 15 54 29 91 29 90 0 160-74 160-163 0-48-22-85-33-100M221-186c-37 0-89-23-89-106s52-106 89-106c43 0 90 28 90 106s-47 106-90 106M266 3c22 0 135 0 135 69 0 44-69 77-151 77-81 0-152-31-152-78 0-3 0-68 78-68" fill-rule="evenodd" transform="scale(.00996)" id="j"/>
    <path d="M435-298c0-66-15-157-137-157-62 0-110 31-142 72v-311H81V0h78v-245c0-66 25-149 101-149 96 0 97 71 97 103V0h78" fill-rule="evenodd" transform="scale(.00996)" id="w"/>
    <path d="M163-680H74v89h89m-7 147H81V0h75" fill-rule="evenodd" transform="scale(.00996)" id="k"/>
    <path d="M184-680H95v89h89M-61 171c48 28 94 34 120 34 63 0 125-52 125-146v-503h-75V68c0 64-50 73-78 73-29 0-55-11-77-31" fill-rule="evenodd" transform="scale(.00996)" id="g"/>
    <path d="M156-694H81V0h75" fill-rule="evenodd" transform="scale(.00996)" id="r"/>
    <path d="M713-298c0-67-16-157-137-157-60 0-112 28-149 82-26-76-96-82-128-82-72 0-119 41-146 77v-72H81V0h78v-245c0-68 27-149 101-149 93 0 98 65 98 103V0h78v-245c0-68 27-149 101-149 93 0 98 65 98 103V0h78" fill-rule="evenodd" transform="scale(.00996)" id="d"/>
    <path d="M435-298c0-66-15-157-137-157-90 0-139 68-145 76v-71H81V0h78v-245c0-66 25-149 101-149 96 0 97 71 97 103V0h78" fill-rule="evenodd" transform="scale(.00996)" id="B"/>
    <path d="M469-220c0-134-100-241-219-241-123 0-220 110-220 241C30-88 132 11 249 11c120 0 220-101 220-231M249-53c-69 0-141-56-141-177s76-170 141-170c70 0 142 52 142 170S323-53 249-53" fill-rule="evenodd" transform="scale(.00996)" id="f"/>
    <path d="M160-46c31 29 75 57 135 57 97 0 185-98 185-234 0-120-63-232-159-232-60 0-118 21-164 60v-49H82v638h78m0-527c24-35 63-58 106-58 76 0 136 76 136 168 0 103-71 173-146 173-39 0-66-20-86-47-10-15-10-17-10-35" fill-rule="evenodd" transform="scale(.00996)" id="A"/>
    <path d="M157-214c0-100 72-172 170-174v-67c-89 1-144 50-175 96v-91H82V0h75" fill-rule="evenodd" transform="scale(.00996)" id="e"/>
    <path d="M343-429c-52-24-93-32-144-32-25 0-166 0-166 131 0 49 29 81 54 100 31 22 53 26 108 37 36 7 94 19 94 72 0 69-79 69-94 69-81 0-137-37-155-49L28-33c32 16 87 44 168 44 18 0 73 0 116-32 31-24 48-64 48-107 0-55-37-89-39-92-39-35-66-41-116-50-55-11-101-21-101-70 0-62 72-62 85-62 32 0 85 4 142 38" fill-rule="evenodd" transform="scale(.00996)" id="l"/>
    <path d="M175-386h141v-58H175v-127h-69v127H19v58h84v267c0 60 14 130 83 130 70 0 121-25 146-38l-16-59c-26 21-58 33-90 33-37 0-51-30-51-83" fill-rule="evenodd" transform="scale(.00996)" id="c"/>
    <path d="M435-444h-78v290c0 75-56 110-120 110-71 0-78-26-78-69v-331H81v335c0 72 23 120 106 120 53 0 124-16 173-59V0h75" fill-rule="evenodd" transform="scale(.00996)" id="v"/>
    <path d="M446-444h-75l-79 208c-21 55-52 136-60 183h-1c-6-36-32-105-42-132L92-444H14L186 0h88" fill-rule="evenodd" transform="scale(.00996)" id="C"/>
    <path d="M668-444h-73l-64 212c-11 36-41 135-46 178h-1c-4-31-29-120-46-177l-65-213h-70l-57 188c-11 35-45 150-49 201h-1c-5-48-38-161-54-216L90-444H14L151 0h79c5-16 40-128 62-206 14-46 42-145 45-182h1c2 28 19 97 32 140L443 0h88" fill-rule="evenodd" transform="scale(.00996)" id="q"/>
    <path d="M260-229l183-215h-82L227-279 89-444H6l188 215L0 0h82l145-188L377 0h83" fill-rule="evenodd" transform="scale(.00996)" id="J"/>
    <path d="M446-444h-75C241-126 239-80 238-57h-1c-6-67-86-253-90-262L93-444H14L208 0c-12 31-32 81-36 90-26 58-43 58-57 58-16 0-48-4-78-16l6 65c22 5 50 8 72 8 35 0 72-12 113-114" fill-rule="evenodd" transform="scale(.00996)" id="m"/>
    <path d="M464-316c0-158-152-159-202-159-47 0-97 4-164 32-21 9-26 12-26 23 0 7 6 65 7 73 1 6 6 11 13 11 5 0 8-3 11-6 43-45 93-67 155-67 54 0 70 33 70 92v35c-35 0-297 2-297 149C31-63 87 11 175 11c34 0 109-10 156-79v20c0 32 7 48 48 48h37c38 0 48-13 48-48M328-154c0 93-95 93-98 93-42 0-69-36-69-74 0-98 139-105 167-106" fill-rule="evenodd" transform="scale(.00996)" id="O"/>
    <path d="M194-646c0-32-7-48-48-48h-37c-36 0-48 11-48 48v598c0 36 11 48 48 48h40c17 0 47 0 48-39 46 50 97 50 113 50 213 0 213-192 213-242 0-48 0-238-188-238-82 0-132 46-141 56m3 51c13-12 43-35 89-35 101 0 101 92 101 167 0 74 0 169-112 169-42 0-67-25-78-39" fill-rule="evenodd" transform="scale(.00996)" id="M"/>
    <path d="M457-50c0-11-4-57-6-70 0-3-2-13-12-13-4 0-6 0-16 10-17 15-64 56-146 56-104 0-104-101-104-165 0-81 5-165 107-165 65 0 92 16 128 46 12 11 14 11 18 11 10 0 12-9 13-13 2-8 12-64 12-69 0-9-7-13-24-21-48-22-78-32-148-32-149 0-242 70-242 245C37-64 123 11 274 11c27 0 87-1 154-35 28-15 29-16 29-26" fill-rule="evenodd" transform="scale(.00996)" id="U"/>
    <path d="M499-646c0-32-7-48-48-48h-37c-38 0-48 13-48 48v227c-45-43-95-50-126-50C37-469 37-277 37-228c0 46 0 239 198 239 42 0 85-12 128-58 0 37 14 47 48 47h40c38 0 48-13 48-48m-136-77c0 17 0 26-29 46-25 16-48 18-60 18-101 0-101-92-101-167s0-169 112-169c29 0 56 10 78 31" fill-rule="evenodd" transform="scale(.00996)" id="N"/>
    <path d="M431-214c23 0 48-1 48-46 0-129-60-215-209-215-160 0-239 90-239 242C31-69 126 11 283 11c38 0 95-5 161-38 22-11 29-14 29-26 0-7-3-36-4-44-4-31-5-32-14-32-4 0-6 0-17 10-59 51-119 58-151 58-113 0-125-89-128-153m1-53c3-61 23-136 110-136 80 0 95 58 98 136" fill-rule="evenodd" transform="scale(.00996)" id="L"/>
    <path d="M518-225c0-164-80-250-243-250-167 0-244 89-244 250C31-62 117 11 274 11s244-72 244-236M275-67c-108 0-108-90-108-170 0-77 0-166 107-166 108 0 108 88 108 166 0 79 0 170-107 170" fill-rule="evenodd" transform="scale(.00996)" id="R"/>
    <path d="M194-230c0-95 79-134 142-138 18-1 20-1 20-27v-47c0-20 0-27-18-27-28 0-101 10-148 118h-1v-65c0-32-7-48-48-48h-32c-36 0-48 11-48 48v368c0 36 11 48 48 48h37c38 0 48-13 48-48" fill-rule="evenodd" transform="scale(.00996)" id="T"/>
    <path d="M396-141c0-56-30-91-48-107-40-36-75-42-117-50-55-10-95-18-95-57 0-41 33-49 72-49 67 0 103 25 129 47 10 10 12 10 16 10 10 0 12-9 13-13 2-8 12-64 12-69 0-16-53-30-64-34-40-11-72-12-98-12-45 0-179 0-179 143 0 49 22 79 49 103 35 32 74 39 131 50 29 5 80 14 80 58 0 47-39 54-78 54-44 0-100-13-147-69-5-5-8-8-14-8-10 0-12 9-13 15-2 14-14 71-14 81 0 18 74 41 75 42 55 17 96 17 113 17 51 0 177-4 177-152" fill-rule="evenodd" transform="scale(.00996)" id="Q"/>
    <path d="M218-386h89c12 0 48 0 48-36s-36-36-48-36h-89v-83c0-32-7-48-48-48h-31c-36 0-48 11-48 48v83H68c-11 0-48 0-48 36s36 36 48 36h20v253C88-32 124 11 193 11c9 0 53 0 105-16 17-5 75-23 75-42 0-3-2-10-8-31-5-20-7-26-16-26-5 0-6 1-12 7-11 8-38 30-80 30-24 0-39-17-39-83" fill-rule="evenodd" transform="scale(.00996)" id="P"/>
    <path d="M500-410c0-32-7-48-48-48h-40c-38 0-48 13-48 48v237c0 66-35 123-106 123-56 0-62-14-62-67v-293c0-32-7-48-48-48h-40c-36 0-48 11-48 48v284C60-19 118 11 222 11c27 0 98 0 145-85v26c0 32 7 48 48 48h37c38 0 48-13 48-48" fill-rule="evenodd" transform="scale(.00996)" id="S"/>
    <path d="M719-430c-3-28-21-28-52-28-47 0-59 3-73 55-22 77-66 233-81 290l-85-300c-6-22-13-45-59-45-15 0-38 0-52 23-9 15-53 188-88 305l-80-283c-10-34-21-45-62-45H67c-19 0-40 0-43 28L130-46c13 46 39 46 64 46h28c47 0 55-15 66-55 23-83 59-209 63-261l1-1c6 57 50 215 63 262 11 36 16 55 66 55h68c43 0 53-12 63-46" fill-rule="evenodd" transform="scale(.00996)" id="K"/>
  </defs>
  <g transform="matrix(2 0 0 2 36.087 354.715)">
    <use xlink:href="#a"/>
    <use xlink:href="#b" x="7.083"/>
    <use xlink:href="#c" x="11.528"/>
    <use xlink:href="#d" x="15.139"/>
    <use xlink:href="#b" x="23.084"/>
    <use xlink:href="#c" x="27.528"/>
    <use xlink:href="#e" x="31.139"/>
  </g>
  <path d="M29 363.693h83.026V331.79H29z" stroke="#000" stroke-width="2.126" stroke-linecap="round" stroke-linejoin="round" stroke-miterlimit="10" fill="none"/>
  <g transform="matrix(2 0 0 2 36.087 294.466)">
    <use xlink:href="#d"/>
    <use xlink:href="#f" x="7.945"/>
    <use xlink:href="#g" x="12.945"/>
    <use xlink:href="#b" x="15.611"/>
    <use xlink:href="#h" x="20.056"/>
    <use xlink:href="#i" x="22.834"/>
  </g>
  <path d="M29 303.444h74.06V271.54H29z" stroke="#000" stroke-width="2.126" stroke-linecap="round" stroke-linejoin="round" stroke-miterlimit="10" fill="none"/>
  <g transform="matrix(2 0 0 2 36.087 234.217)">
    <use xlink:href="#e"/>
    <use xlink:href="#b" x="3.417"/>
    <use xlink:href="#j" x="7.861"/>
    <use xlink:href="#k" x="12.861"/>
    <use xlink:href="#l" x="15.25"/>
    <use xlink:href="#c" x="19.084"/>
    <use xlink:href="#e" x="22.695"/>
    <use xlink:href="#m" x="26.112"/>
  </g>
  <path d="M29 243.194h75.388v-31.903H29z" stroke="#000" stroke-width="2.126" stroke-linecap="round" stroke-linejoin="round" stroke-miterlimit="10" fill="none"/>
  <g transform="matrix(2 0 0 2 36.087 173.967)">
    <use xlink:href="#i"/>
    <use xlink:href="#a" x="7.222"/>
    <use xlink:href="#n" x="14.306"/>
  </g>
  <g transform="matrix(2 0 0 2 82.302 173.967)">
    <use xlink:href="#o"/>
    <use xlink:href="#e" x="4.445"/>
    <use xlink:href="#p" x="7.861"/>
  </g>
  <g transform="matrix(2 0 0 2 106.988 173.967)">
    <use xlink:href="#q"/>
    <use xlink:href="#r" x="6.833"/>
    <use xlink:href="#b" x="9.222"/>
    <use xlink:href="#e" x="13.667"/>
  </g>
  <path d="M29 182.945h119.113v-31.903H29z" stroke="#000" stroke-width="2.126" stroke-linecap="round" stroke-linejoin="round" stroke-miterlimit="10" fill="none"/>
  <g transform="matrix(2 0 0 2 36.087 113.718)">
    <use xlink:href="#s"/>
    <use xlink:href="#i" x="7.361"/>
  </g>
  <g transform="matrix(2 0 0 2 64.59 113.718)">
    <use xlink:href="#t"/>
    <use xlink:href="#u" x="6.667"/>
  </g>
  <path d="M29 122.696h68.83V90.793H29z" stroke="#000" stroke-width="2.126" stroke-linecap="round" stroke-linejoin="round" stroke-miterlimit="10" fill="none"/>
  <g transform="matrix(2 0 0 2 36.087 53.469)">
    <use xlink:href="#p"/>
    <use xlink:href="#v" x="4.806"/>
    <use xlink:href="#c" x="9.972"/>
    <use xlink:href="#w" x="13.584"/>
    <use xlink:href="#x" x="18.75"/>
  </g>
  <g transform="matrix(2 0 0 2 85.623 53.469)">
    <use xlink:href="#i"/>
    <use xlink:href="#a" x="7.222"/>
    <use xlink:href="#n" x="14.306"/>
  </g>
  <path d="M29 62.446h103.284V30.543H29z" stroke="#000" stroke-width="2.126" stroke-linecap="round" stroke-linejoin="round" stroke-miterlimit="10" fill="none"/>
  <g transform="matrix(2 0 0 2 280.085 57.078)">
    <use xlink:href="#y"/>
    <use xlink:href="#p" x="7.083"/>
    <use xlink:href="#z" x="11.889"/>
    <use xlink:href="#f" x="17.056"/>
  </g>
  <g transform="matrix(2 0 0 2 324.585 57.078)">
    <use xlink:href="#f"/>
    <use xlink:href="#A" x="5"/>
  </g>
  <path d="M269.944 66.056h85.04V34.153h-85.04z" stroke="#000" stroke-width="2.126" stroke-linecap="round" stroke-linejoin="round" stroke-miterlimit="10" fill="none"/>
  <g transform="matrix(2 0 0 2 284.68 88.98)">
    <use xlink:href="#h"/>
    <use xlink:href="#d" x="2.778"/>
    <use xlink:href="#A" x="10.722"/>
    <use xlink:href="#p" x="15.889"/>
    <use xlink:href="#r" x="20.695"/>
    <use xlink:href="#p" x="23.084"/>
  </g>
  <path d="M269.944 97.958h85.04V66.056h-85.04z" stroke="#000" stroke-width="2.126" stroke-linecap="round" stroke-linejoin="round" stroke-miterlimit="10" fill="none"/>
  <g transform="matrix(2 0 0 2 269.93 163.403)">
    <use xlink:href="#l"/>
    <use xlink:href="#c" x="3.833"/>
    <use xlink:href="#p" x="7.445"/>
    <use xlink:href="#c" x="12.25"/>
    <use xlink:href="#k" x="15.861"/>
    <use xlink:href="#l" x="18.25"/>
    <use xlink:href="#c" x="22.084"/>
    <use xlink:href="#k" x="25.695"/>
    <use xlink:href="#o" x="28.084"/>
    <use xlink:href="#p" x="32.528"/>
    <use xlink:href="#r" x="37.334"/>
  </g>
  <use xlink:href="#A" transform="matrix(2 0 0 2 269.93 189.306)"/>
  <g transform="matrix(2 0 0 2 279.67 189.306)">
    <use xlink:href="#e"/>
    <use xlink:href="#f" x="3.417"/>
  </g>
  <g transform="matrix(2 0 0 2 296.994 189.306)">
    <use xlink:href="#o"/>
    <use xlink:href="#b" x="4.445"/>
    <use xlink:href="#l" x="8.889"/>
    <use xlink:href="#l" x="12.722"/>
    <use xlink:href="#k" x="16.556"/>
    <use xlink:href="#B" x="18.945"/>
    <use xlink:href="#j" x="24.112"/>
  </g>
  <path d="M262.842 198.284h99.244v-57.806h-99.244z" stroke="#000" stroke-width="2.126" stroke-linecap="round" stroke-linejoin="round" stroke-miterlimit="10" fill="none"/>
  <g transform="matrix(2 0 0 2 267.826 263.729)">
    <use xlink:href="#l"/>
    <use xlink:href="#b" x="3.833"/>
    <use xlink:href="#e" x="8.278"/>
    <use xlink:href="#C" x="11.695"/>
    <use xlink:href="#k" x="16.306"/>
    <use xlink:href="#o" x="18.695"/>
    <use xlink:href="#b" x="23.139"/>
  </g>
  <g transform="matrix(2 0 0 2 329.428 263.729)">
    <use xlink:href="#i"/>
    <use xlink:href="#D" x="7.222"/>
  </g>
  <path d="M262.858 272.706h99.212v-31.903h-99.212z" stroke="#000" stroke-width="2.126" stroke-linecap="round" stroke-linejoin="round" stroke-miterlimit="10" fill="none"/>
  <g transform="matrix(2 0 0 2 268.67 295.632)">
    <use xlink:href="#u"/>
    <use xlink:href="#E" x="6.458"/>
    <use xlink:href="#n" x="12.431"/>
    <use xlink:href="#F" x="17.986"/>
  </g>
  <g transform="matrix(2 0 0 2 324.71 295.632)">
    <use xlink:href="#G"/>
    <use xlink:href="#H" x="6.667"/>
    <use xlink:href="#h" x="13.056"/>
  </g>
  <path d="M262.858 304.61h99.212v-31.904h-99.212z" stroke="#000" stroke-width="2.126" stroke-linecap="round" stroke-linejoin="round" stroke-miterlimit="10" fill="none"/>
  <g transform="matrix(2 0 0 2 238.408 370.054)">
    <use xlink:href="#z"/>
    <use xlink:href="#k" x="5.167"/>
    <use xlink:href="#e" x="7.556"/>
    <use xlink:href="#b" x="10.972"/>
    <use xlink:href="#o" x="15.417"/>
    <use xlink:href="#c" x="19.862"/>
  </g>
  <g transform="matrix(2 0 0 2 291.82 370.054)">
    <use xlink:href="#z"/>
    <use xlink:href="#p" x="5.167"/>
    <use xlink:href="#c" x="9.972"/>
    <use xlink:href="#p" x="13.584"/>
  </g>
  <g transform="matrix(2 0 0 2 335.102 370.054)">
    <use xlink:href="#p"/>
    <use xlink:href="#o" x="4.806"/>
    <use xlink:href="#o" x="9.25"/>
    <use xlink:href="#b" x="13.695"/>
    <use xlink:href="#l" x="18.139"/>
    <use xlink:href="#l" x="21.973"/>
  </g>
  <path d="M231.322 379.032h162.284v-31.903H231.322z" stroke="#000" stroke-width="2.126" stroke-linecap="round" stroke-linejoin="round" stroke-miterlimit="10" fill="none"/>
  <g transform="matrix(2 0 0 2 534.17 131.5)">
    <use xlink:href="#j"/>
    <use xlink:href="#b" x="5"/>
    <use xlink:href="#B" x="9.445"/>
    <use xlink:href="#b" x="14.611"/>
    <use xlink:href="#e" x="19.056"/>
    <use xlink:href="#p" x="22.473"/>
    <use xlink:href="#r" x="27.278"/>
  </g>
  <g transform="matrix(2 0 0 2 599.923 131.5)">
    <use xlink:href="#A"/>
    <use xlink:href="#v" x="5.167"/>
    <use xlink:href="#I" x="10.334"/>
    <use xlink:href="#r" x="15.5"/>
    <use xlink:href="#k" x="17.889"/>
    <use xlink:href="#o" x="20.278"/>
  </g>
  <path d="M525.062 140.478H658.29v-31.903H525.062z" stroke="#000" stroke-width="2.126" stroke-linecap="round" stroke-linejoin="round" stroke-miterlimit="10" fill="none"/>
  <g transform="matrix(2 0 0 2 561.982 163.403)">
    <use xlink:href="#b"/>
    <use xlink:href="#J" x="4.445"/>
    <use xlink:href="#A" x="9.056"/>
  </g>
  <g transform="matrix(2 0 0 2 590.874 163.403)">
    <use xlink:href="#b"/>
    <use xlink:href="#e" x="4.445"/>
    <use xlink:href="#c" x="7.861"/>
    <use xlink:href="#l" x="11.472"/>
  </g>
  <path d="M525.062 172.381H658.29v-31.903H525.062z" stroke="#000" stroke-width="2.126" stroke-linecap="round" stroke-linejoin="round" stroke-miterlimit="10" fill="none"/>
  <g transform="matrix(2 0 0 2 550.138 195.306)">
    <use xlink:href="#o"/>
    <use xlink:href="#v" x="4.445"/>
    <use xlink:href="#l" x="9.611"/>
    <use xlink:href="#c" x="13.445"/>
    <use xlink:href="#f" x="17.056"/>
    <use xlink:href="#d" x="22.056"/>
    <use xlink:href="#b" x="30.001"/>
    <use xlink:href="#e" x="34.445"/>
    <use xlink:href="#l" x="37.862"/>
  </g>
  <path d="M525.062 204.284H658.29V172.38H525.062z" stroke="#000" stroke-width="2.126" stroke-linecap="round" stroke-linejoin="round" stroke-miterlimit="10" fill="none"/>
  <g transform="matrix(2 0 0 2 543.69 227.21)">
    <use xlink:href="#k"/>
    <use xlink:href="#B" x="2.389"/>
    <use xlink:href="#c" x="7.556"/>
    <use xlink:href="#b" x="11.167"/>
    <use xlink:href="#e" x="15.611"/>
    <use xlink:href="#B" x="19.028"/>
    <use xlink:href="#p" x="24.195"/>
    <use xlink:href="#r" x="29.001"/>
  </g>
  <g transform="matrix(2 0 0 2 612.875 227.21)">
    <use xlink:href="#v"/>
    <use xlink:href="#l" x="5.167"/>
    <use xlink:href="#b" x="9"/>
  </g>
  <path d="M525.062 236.187H658.29v-31.903H525.062z" stroke="#000" stroke-width="2.126" stroke-linecap="round" stroke-linejoin="round" stroke-miterlimit="10" fill="none"/>
  <use xlink:href="#K" transform="matrix(2 0 0 2 573.882 105.575)"/>
  <g transform="matrix(2 0 0 2 588.106 105.575)">
    <use xlink:href="#L"/>
    <use xlink:href="#M" x="5.111"/>
  </g>
  <path d="M132.284 46.495l137.66.775" stroke="#000" stroke-width="2.126" stroke-linecap="round" stroke-linejoin="round" stroke-miterlimit="10" fill="none"/>
  <path d="M266.24 48.78l3.704-1.51-3.686-1.552z" stroke="#000" stroke-width="2.126"/>
  <path d="M132.284 46.495L262.842 149.26" stroke="#000" stroke-width="2.126" stroke-linecap="round" stroke-linejoin="round" stroke-miterlimit="10" fill="none"/>
  <path d="M258.991 148.177l3.851 1.083-1.957-3.489z" stroke="#000" stroke-width="2.126"/>
  <path d="M97.83 106.744L269.944 52.94" stroke="#000" stroke-width="2.126" stroke-linecap="round" stroke-linejoin="round" stroke-miterlimit="10" fill="none"/>
  <path d="M266.873 55.503l3.071-2.564-3.984-.359z" stroke="#000" stroke-width="2.126"/>
  <path d="M97.83 106.744l165.012 48.185" stroke="#000" stroke-width="2.126" stroke-linecap="round" stroke-linejoin="round" stroke-miterlimit="10" fill="none"/>
  <path d="M258.866 155.363l3.976-.434-3.118-2.505z" stroke="#000" stroke-width="2.126"/>
  <path d="M148.113 166.993L269.944 58.608" stroke="#000" stroke-width="2.126" stroke-linecap="round" stroke-linejoin="round" stroke-miterlimit="10" fill="none"/>
  <path d="M268.2 62.209l1.744-3.6-3.779 1.312z" stroke="#000" stroke-width="2.126"/>
  <path d="M104.388 227.243l158.454-57.862" stroke="#000" stroke-width="2.126" stroke-linecap="round" stroke-linejoin="round" stroke-miterlimit="10" fill="none"/>
  <path d="M259.896 172.086l2.946-2.705-3.996-.17z" stroke="#000" stroke-width="2.126"/>
  <path d="M103.06 287.492l159.782-111.024" stroke="#000" stroke-width="2.126" stroke-linecap="round" stroke-linejoin="round" stroke-miterlimit="10" fill="none"/>
  <path d="M260.682 179.833l2.16-3.365-3.907.851z" stroke="#000" stroke-width="2.126"/>
  <path d="M112.026 347.741l150.816-164.187" stroke="#000" stroke-width="2.126" stroke-linecap="round" stroke-linejoin="round" stroke-miterlimit="10" fill="none"/>
  <path d="M261.47 187.312l1.372-3.758-3.627 1.686z" stroke="#000" stroke-width="2.126"/>
  <path d="M312.464 97.958v42.52" stroke="#000" stroke-width="2.126" stroke-linecap="round" stroke-linejoin="round" stroke-miterlimit="10" fill="none"/>
  <path d="M310.933 136.783l1.531 3.695 1.53-3.695z" stroke="#000" stroke-width="2.126"/>
  <path d="M312.464 198.284v42.52" stroke="#000" stroke-width="2.126" stroke-linecap="round" stroke-linejoin="round" stroke-miterlimit="10" fill="none"/>
  <path d="M310.933 237.108l1.531 3.695 1.53-3.695z" stroke="#000" stroke-width="2.126"/>
  <path d="M312.464 304.61v42.519" stroke="#000" stroke-width="2.126" stroke-linecap="round" stroke-linejoin="round" stroke-miterlimit="10" fill="none"/>
  <path d="M310.933 343.433l1.531 3.696 1.53-3.696z" stroke="#000" stroke-width="2.126"/>
  <path d="M362.07 288.658l162.992-164.131" stroke="#000" stroke-width="2.126" stroke-linecap="round" stroke-linejoin="round" stroke-miterlimit="10" fill="none"/>
  <path d="M523.545 128.227l1.517-3.7-3.69 1.543z" stroke="#000" stroke-width="2.126"/>
  <path d="M362.07 288.658L525.062 156.43" stroke="#000" stroke-width="2.126" stroke-linecap="round" stroke-linejoin="round" stroke-miterlimit="10" fill="none"/>
  <path d="M523.157 159.946l1.905-3.516-3.834 1.139z" stroke="#000" stroke-width="2.126"/>
  <path d="M362.07 288.658l162.992-100.326" stroke="#000" stroke-width="2.126" stroke-linecap="round" stroke-linejoin="round" stroke-miterlimit="10" fill="none"/>
  <path d="M522.717 191.574l2.345-3.242-3.95.634z" stroke="#000" stroke-width="2.126"/>
  <path d="M362.07 288.658l162.992-68.423" stroke="#000" stroke-width="2.126" stroke-linecap="round" stroke-linejoin="round" stroke-miterlimit="10" fill="none"/>
  <path d="M522.247 223.077l2.815-2.842-4 .02z" stroke="#000" stroke-width="2.126"/>
  <path d="M.654 377.866H176.46V16.37H.654z" stroke="#000" stroke-width="2.126" stroke-linecap="round" stroke-dasharray="3 3" stroke-linejoin="round" stroke-miterlimit="10" fill="none"/>
  <g transform="matrix(2 0 0 2 31.684 13.37)">
    <use xlink:href="#N"/>
    <use xlink:href="#O" x="5.611"/>
    <use xlink:href="#P" x="10.861"/>
    <use xlink:href="#O" x="14.903"/>
  </g>
  <g transform="matrix(2 0 0 2 79.145 13.37)">
    <use xlink:href="#Q"/>
    <use xlink:href="#R" x="4.217"/>
    <use xlink:href="#S" x="9.717"/>
    <use xlink:href="#T" x="15.328"/>
    <use xlink:href="#U" x="19.05"/>
    <use xlink:href="#L" x="23.939"/>
    <use xlink:href="#Q" x="29.051"/>
  </g>
</svg>